<svg width="4" height="8" viewBox="0 0 4 8" fill="none" xmlns="http://www.w3.org/2000/svg">
<path d="M1.24357 5.46301C1.15871 5.05753 1.12607 4.72694 1.14565 4.47123C1.1685 4.21187 1.24521 3.99269 1.37577 3.8137C1.50632 3.6347 1.694 3.45753 1.9388 3.28219C2.27499 3.0411 2.49857 2.83653 2.60955 2.66849C2.72052 2.50046 2.77601 2.31416 2.77601 2.10959C2.77601 1.78447 2.67319 1.54155 2.46756 1.38082C2.26193 1.21644 1.97307 1.13425 1.60098 1.13425C1.33333 1.13425 1.0918 1.17626 0.876377 1.26027C0.660955 1.34429 0.463484 1.46119 0.283966 1.61096L0 0.60822C0.107711 0.502283 0.251326 0.403653 0.430845 0.312329C0.610363 0.217352 0.817626 0.142466 1.05263 0.0876714C1.28764 0.0292238 1.5406 0 1.81151 0C2.22929 0 2.60302 0.0767124 2.93268 0.230137C3.26234 0.379909 3.52183 0.59726 3.71114 0.882192C3.90371 1.16347 4 1.49954 4 1.89041C4 2.11324 3.9641 2.32329 3.89229 2.52055C3.82375 2.71416 3.70461 2.90776 3.53488 3.10137C3.36516 3.29498 3.13341 3.50137 2.83966 3.72055C2.63076 3.87397 2.47736 4.02192 2.37944 4.16438C2.28152 4.3032 2.22603 4.47306 2.21297 4.67397C2.19992 4.87123 2.21624 5.13425 2.26193 5.46301H1.24357ZM1.79682 8C1.58792 8 1.4084 7.92511 1.25826 7.77534C1.10812 7.62557 1.03305 7.43014 1.03305 7.18904C1.03305 7.02466 1.06732 6.88219 1.13586 6.76164C1.20441 6.63744 1.2958 6.54247 1.41004 6.47671C1.52754 6.40731 1.65647 6.3726 1.79682 6.3726C2.00898 6.3726 2.19013 6.44749 2.34027 6.59726C2.49041 6.74338 2.56548 6.94064 2.56548 7.18904C2.56548 7.34977 2.52958 7.49224 2.45777 7.61644C2.38923 7.73699 2.29621 7.83014 2.1787 7.89589C2.06446 7.9653 1.93717 8 1.79682 8Z" fill="#6D6E6B"/>
</svg>
